<svg xmlns="http://www.w3.org/2000/svg" viewBox="0 0 37.05 37.11"><defs><style>.cls-1{fill:#001f60;}</style></defs><g id="Layer_2" data-name="Layer 2"><g id="Layer_1-2" data-name="Layer 1"><path class="cls-1" d="M36.72.88h0A2,2,0,0,0,34.11.25C31,2,23.16,3.28,19.83,3.84l-.31.05C11.83,5.17,5.67,12.32,3.84,22.09l-.15.78C2.93,26.93,2.08,31.53.34,34.11A1.9,1.9,0,0,0,0,35.57a1.82,1.82,0,0,0,.8,1.21,2,2,0,0,0,1.07.33,1.89,1.89,0,0,0,1.14-.39l.41-.32c1.24-1,2.41-1.88,6.21-2.83.83-.21,1.7-.4,2.6-.6,4.62-1,9.86-2.17,14.73-6.5,4.39-3.9,6.19-11.59,7.37-16.68a35.08,35.08,0,0,1,1-3.78,26,26,0,0,1,1.4-3A2,2,0,0,0,36.72.88Zm-1,1.47a24.93,24.93,0,0,0-1.48,3.19,33.67,33.67,0,0,0-1.07,4c-1.15,4.93-2.89,12.38-7,16-4.62,4.11-9.69,5.22-14.16,6.21-.91.2-1.79.39-2.64.6C5.3,33.36,4,34.4,2.68,35.41l-.4.31a.63.63,0,0,1-.61.08.64.64,0,0,1-.39-.47.66.66,0,0,1,.1-.51C3.27,32,4.15,27.28,4.93,23.1l.15-.77c1.73-9.25,7.48-16,14.65-17.2l.3,0c3.69-.61,11.37-1.89,14.7-3.72a.68.68,0,0,1,.35-.09.72.72,0,0,1,.59.31A.74.74,0,0,1,35.69,2.35Z"/><path class="cls-1" d="M13.93,12a.62.62,0,0,0-.28-.42.63.63,0,0,0-.5-.09c-.11,0-2.85.76-4.85,5.42a34.22,34.22,0,0,0-2.06,9.45,30.75,30.75,0,0,1-.5,3.29.65.65,0,0,0,.61.79.6.6,0,0,0,.27-.06c.13-.06,3.16-1.52,5.36-6A19.83,19.83,0,0,0,13.93,12ZM7.24,28.45c.09-.59.17-1.25.25-2a33.9,33.9,0,0,1,2-9.09A9.2,9.2,0,0,1,12.8,13a18.72,18.72,0,0,1-2,10.8A13.4,13.4,0,0,1,7.24,28.45Z"/><path class="cls-1" d="M20.26,18.42c-4.7,0-9,9.42-9.43,10.49a.64.64,0,0,0,.05.6.63.63,0,0,0,.53.28c2.75,0,8.61-2,11.77-4.56a3.33,3.33,0,0,0,1.39-3.86A4.85,4.85,0,0,0,20.26,18.42Zm2.13,5.82a24.29,24.29,0,0,1-10,4.2c1.52-3.12,4.87-8.76,7.82-8.76a3.57,3.57,0,0,1,3.11,2.11A2.12,2.12,0,0,1,22.39,24.24Z"/><path class="cls-1" d="M28.42,7.41a.63.63,0,0,0-.67-.36A16.17,16.17,0,0,0,15.24,17.58a.65.65,0,0,0,.24.73.63.63,0,0,0,.76,0,8.9,8.9,0,0,1,4.17-2.08,10.22,10.22,0,0,0,4.68-2.34C29.51,10.16,28.54,7.68,28.42,7.41Zm-4.14,5.46A8.83,8.83,0,0,1,20.11,15a10.12,10.12,0,0,0-2.77,1,15.12,15.12,0,0,1,10-7.57C27.29,9.14,26.87,10.72,24.28,12.87Z"/><path class="cls-1" d="M15.08,11.45a2.31,2.31,0,0,0,.46.05c2.21,0,5-2.89,6.47-4.69a.64.64,0,0,0,.07-.7.61.61,0,0,0-.62-.33c-5,.5-6.89,3.36-6.89,5.05A.63.63,0,0,0,15.08,11.45Zm4.77-4.11A9.41,9.41,0,0,1,16,10.18C16.34,9.23,17.48,8,19.85,7.34Z"/><path class="cls-1" d="M29.11,14a4,4,0,0,0-2.66,1.82c-.55.89-1,2.44.2,4.78a.61.61,0,0,0,.5.35h.06a.64.64,0,0,0,.51-.26,11.1,11.1,0,0,0,2-6.07.63.63,0,0,0-.19-.44A.68.68,0,0,0,29.11,14ZM27.33,18.9a3,3,0,0,1,.1-2.24,2.73,2.73,0,0,1,1-1.07A9.91,9.91,0,0,1,27.33,18.9Z"/></g></g></svg>