<svg xmlns="http://www.w3.org/2000/svg" viewBox="0 0 38.77 38.77"><defs><style>.cls-1{fill:#001f60;stroke:#fff;stroke-miterlimit:10;stroke-width:0.25px;}</style></defs><g id="Layer_2" data-name="Layer 2"><g id="Layer_1-2" data-name="Layer 1"><path class="cls-1" d="M3.13,38.64a2.91,2.91,0,0,0,1.27-.28c.94-.28,10.77-3.35,12.67-8.17,1.22-3.08.41-7.11-.56-10.1l1.28-1.28a2.26,2.26,0,0,1,3.19,0l1.28,1.28c-1,3-1.79,7-.57,10.1C23.6,35,33.43,38.08,34.37,38.36a2.9,2.9,0,0,0,1.26.28,3,3,0,0,0,3-3.18c0-1-.18-4.4-.54-8.27a.75.75,0,0,0-1.5.14c.44,4.69.51,7.93.54,8.22a1.51,1.51,0,0,1-1.51,1.59,2,2,0,0,1-.78-.2c-3.43-1-10.42-3.92-11.76-7.3-1-2.51-.33-6,.37-8.34l1.41,1.4a.75.75,0,0,0,1.06,0,.74.74,0,0,0,0-1.06L22,17.75a3.76,3.76,0,0,0-5.32,0l-3.89,3.89a.75.75,0,0,0,0,1.06.77.77,0,0,0,1.07,0l1.4-1.4c.7,2.38,1.37,5.83.38,8.34-.69,1.72-2.91,3.53-6.43,5.21a42.53,42.53,0,0,1-5.33,2.09,2,2,0,0,1-.79.2,1.52,1.52,0,0,1-1.5-1.62c.06-1.65.66-16.25,2.91-20.28S13.09,8.1,14.87,8.1a2.26,2.26,0,0,1,2.26,2.26v1.17A3.73,3.73,0,0,1,16,14.19l-1.44,1.43H11.64a5.54,5.54,0,0,0-5,3.43A.75.75,0,0,0,8,19.72c1.3-2.59,3.05-2.59,3.62-2.59h1.45l-3,3A6.83,6.83,0,0,0,8.1,25V29.6L5.31,32.39a.76.76,0,0,0,1.07,1.07L8.85,31l1,1a.75.75,0,1,0,1.07-1.06L9.6,29.6V27.21l1.73,1.73a.75.75,0,0,0,1.06-1.06l-2.8-2.8V25a5.32,5.32,0,0,1,1.55-3.75l5.95-5.95a5.23,5.23,0,0,0,1.54-3.72V1.63h1.51v9.9a5.19,5.19,0,0,0,1.54,3.72l5.94,5.95a5.19,5.19,0,0,1,1.54,3.72v.17l-2.78,2.79a.75.75,0,0,0,1.06,1.06l1.72-1.72V29.6l-1.28,1.29a.75.75,0,0,0,0,1.06.74.74,0,0,0,1.06,0l1-1,2.47,2.48a.76.76,0,0,0,1.07-1.07L30.67,29.6V24.92a6.77,6.77,0,0,0-2-4.79l-3-3h1.45c.57,0,2.32,0,3.62,2.59a.76.76,0,0,0,1,.34.75.75,0,0,0,.33-1,5.51,5.51,0,0,0-5-3.43h-3l-1.43-1.43a3.73,3.73,0,0,1-1.1-2.66V10.36A2.26,2.26,0,0,1,23.9,8.1c2.1,0,8.27,3.46,10.32,7.14a18.65,18.65,0,0,1,1.54,5.44.76.76,0,0,0,.87.61.74.74,0,0,0,.61-.87,19.92,19.92,0,0,0-1.7-5.92c-2.35-4.19-9-7.91-11.64-7.91a3.77,3.77,0,0,0-2.26.76V.88a.75.75,0,0,0-.75-.75h-3a.74.74,0,0,0-.75.75V7.35a3.77,3.77,0,0,0-2.26-.76c-2.62,0-9.3,3.72-11.64,7.91s-3,18.18-3.1,21a3,3,0,0,0,3,3.18Z"/><circle class="cls-1" cx="36.99" cy="23.9" r="0.75"/></g></g></svg>