<svg xmlns="http://www.w3.org/2000/svg" viewBox="0 0 38.47 38.56"><defs><style>.cls-1{fill:#001f60;}</style></defs><g id="Layer_2" data-name="Layer 2"><g id="Layer_1-2" data-name="Layer 1"><path class="cls-1" d="M23.5,37.18A49.69,49.69,0,0,1,3.31,30.56L1.52,29.5a12.58,12.58,0,0,0,.57-1.91c0-.2.09-.39.13-.57.14-.55.3-1.43.48-2.46a29,29,0,0,1,.86-4L7.49,10.43c.09-.22.17-.46.25-.7a3.85,3.85,0,0,1,.84-1.68,3.3,3.3,0,0,1,.83-.49l.1-.06,7.79-6a1.05,1.05,0,0,1,1.31,0l3.91,3.12a1.11,1.11,0,0,1,.4.81,1.09,1.09,0,0,1-.37.83L20.06,8.49a1.07,1.07,0,0,1-1.46-.05,1.07,1.07,0,0,1,.17-1.64L19,6.65l-.73-1.09L18,5.71A2.34,2.34,0,0,0,17,7.45a2.38,2.38,0,0,0,3.94,2L23,7.65l.65,1L19.73,12,15,11.4c.07-.34.15-.67.25-1L14,10a15.07,15.07,0,0,0-.61,4.67c0,.85.11,1.69.2,2.51A24.37,24.37,0,0,1,13.8,20,9.25,9.25,0,0,1,11,26.87l.86,1a9.6,9.6,0,0,0,2.73-4.27,1.77,1.77,0,0,1,.7-.05,8,8,0,0,1,2.49.67A7.78,7.78,0,0,0,17,25.86l1.25.42a6.78,6.78,0,0,1,.68-1.44l.05,0,.63-.92a8.65,8.65,0,0,1,5.18-2.67,7.92,7.92,0,0,1,7.73,2.84l1.06-.76A7.81,7.81,0,0,0,31,21.11a7.39,7.39,0,0,1,7-1.34l.43-1.24a8.74,8.74,0,0,0-8.72,2,10.34,10.34,0,0,0-5.2-.52,9.89,9.89,0,0,0-6,3.15,9.1,9.1,0,0,0-3.19-.89,3.39,3.39,0,0,0-.46,0A11.58,11.58,0,0,0,15.11,20a25.6,25.6,0,0,0-.2-2.94c-.08-.79-.17-1.61-.19-2.4a12.94,12.94,0,0,1,.1-2l5,.63h.09a.64.64,0,0,0,.43-.16L25,9.23a.64.64,0,0,0,.12-.86L23.93,6.64a2.32,2.32,0,0,0,.3-1.19,2.36,2.36,0,0,0-.89-1.8L19.43.52a2.39,2.39,0,0,0-2.94,0L9.06,6.22l-.25.17a4.4,4.4,0,0,0-1.09.67A4.94,4.94,0,0,0,6.49,9.32c-.07.22-.14.43-.22.63L2.33,20a29.55,29.55,0,0,0-.93,4.3c-.17.95-.32,1.86-.45,2.35,0,.2-.09.4-.14.59a7.7,7.7,0,0,1-.72,2.14.66.66,0,0,0,.23.9l2.32,1.37a51.06,51.06,0,0,0,20.75,6.8c.52,0,1.19.07,1.94.07,3.78,0,9.87-.66,12.76-3l-.83-1C34.27,37,26.82,37.46,23.5,37.18Z"/></g></g></svg>